<svg width="29" height="29" viewBox="0 0 29 29" fill="none" xmlns="http://www.w3.org/2000/svg">
<path d="M8.75776 2.52063C9.2512 2.52063 9.65121 2.90532 9.65121 3.37986V5.11309C10.4437 5.0983 11.332 5.0983 12.3315 5.0983H17.0966C18.096 5.0983 18.9844 5.0983 19.7769 5.11309V3.37986C19.7769 2.90532 20.1769 2.52063 20.6704 2.52063C21.1637 2.52063 21.5639 2.90532 21.5639 3.37986V5.18911C23.2784 5.32115 24.4041 5.64521 25.231 6.4405C26.058 7.2358 26.395 8.3183 26.5323 9.96725L26.6269 10.8265H3.99291H2.89587V9.96725C3.03317 8.3183 3.37014 7.2358 4.1971 6.4405C5.02408 5.64521 6.1497 5.32115 7.86431 5.18911V3.37986C7.86431 2.90532 8.26432 2.52063 8.75776 2.52063Z" fill="white"/>
<path opacity="0.5" d="M26.6263 16.7593V14.3862C26.6263 13.3906 26.6225 11.6159 26.6072 10.8265H2.90677C2.89146 11.6159 2.89534 13.3906 2.89534 14.3862V16.7593C2.89534 21.2341 2.89534 23.4714 4.28546 24.8616C5.67559 26.2517 7.91297 26.2517 12.3877 26.2517H17.1339C21.6087 26.2517 23.8461 26.2517 25.2362 24.8616C26.6263 23.4714 26.6263 21.2341 26.6263 16.7593Z" fill="white"/>
<path d="M21.8807 20.3189C21.8807 20.9742 21.3494 21.5054 20.6941 21.5054C20.0388 21.5054 19.5076 20.9742 19.5076 20.3189C19.5076 19.6635 20.0388 19.1323 20.6941 19.1323C21.3494 19.1323 21.8807 19.6635 21.8807 20.3189Z" fill="white"/>
<path d="M21.8807 15.5727C21.8807 16.228 21.3494 16.7592 20.6941 16.7592C20.0388 16.7592 19.5076 16.228 19.5076 15.5727C19.5076 14.9173 20.0388 14.3861 20.6941 14.3861C21.3494 14.3861 21.8807 14.9173 21.8807 15.5727Z" fill="white"/>
<path d="M15.9479 20.3189C15.9479 20.9742 15.4167 21.5054 14.7614 21.5054C14.106 21.5054 13.5748 20.9742 13.5748 20.3189C13.5748 19.6635 14.106 19.1323 14.7614 19.1323C15.4167 19.1323 15.9479 19.6635 15.9479 20.3189Z" fill="white"/>
<path d="M15.9479 15.5727C15.9479 16.228 15.4167 16.7592 14.7614 16.7592C14.106 16.7592 13.5748 16.228 13.5748 15.5727C13.5748 14.9173 14.106 14.3861 14.7614 14.3861C15.4167 14.3861 15.9479 14.9173 15.9479 15.5727Z" fill="white"/>
<path d="M10.0152 20.3189C10.0152 20.9742 9.48395 21.5054 8.82864 21.5054C8.17333 21.5054 7.64209 20.9742 7.64209 20.3189C7.64209 19.6635 8.17333 19.1323 8.82864 19.1323C9.48395 19.1323 10.0152 19.6635 10.0152 20.3189Z" fill="white"/>
<path d="M10.0152 15.5727C10.0152 16.228 9.48395 16.7592 8.82864 16.7592C8.17333 16.7592 7.64209 16.228 7.64209 15.5727C7.64209 14.9173 8.17333 14.3861 8.82864 14.3861C9.48395 14.3861 10.0152 14.9173 10.0152 15.5727Z" fill="white"/>
</svg>
