<svg width="601" height="601" viewBox="0 0 601 601" fill="none" xmlns="http://www.w3.org/2000/svg">
<g filter="url(#filter0_dii_46_321)">
<g clip-path="url(#clip0_46_321)">
<rect x="136.698" y="226.415" width="148.724" height="148.724" rx="34.0588" fill="url(#paint0_linear_46_321)"/>
<path d="M165.753 131.586V469.967" stroke="white" stroke-width="0.794706"/>
<path d="M195.957 131.586V469.967" stroke="white" stroke-width="0.794706"/>
<path d="M226.162 131.586V469.967" stroke="white" stroke-width="0.794706"/>
<path d="M256.367 131.586V469.967" stroke="white" stroke-width="0.794706"/>
<path d="M380.251 255.469L41.8698 255.469" stroke="white" stroke-width="0.794706"/>
<path d="M380.251 285.674L41.8698 285.674" stroke="white" stroke-width="0.794706"/>
<path d="M380.251 315.879L41.8698 315.879" stroke="white" stroke-width="0.794706"/>
<path d="M380.251 346.083L41.8698 346.083" stroke="white" stroke-width="0.794706"/>
<g filter="url(#filter1_di_46_321)">
<rect x="88.4481" y="178.165" width="245.224" height="245.224" fill="url(#paint1_radial_46_321)" shape-rendering="crispEdges"/>
<rect x="88.5616" y="178.278" width="244.997" height="244.997" stroke="white" stroke-opacity="0.6" stroke-width="0.227059" shape-rendering="crispEdges"/>
<path fill-rule="evenodd" clip-rule="evenodd" d="M220.273 280.355C222.46 277.82 223.934 274.29 223.531 270.777C220.379 270.897 216.566 272.79 214.306 275.322C212.276 277.569 210.504 281.159 210.981 284.603C214.497 284.864 218.085 282.893 220.273 280.355ZM228.157 302.652C228.245 311.732 236.469 314.753 236.56 314.792C236.493 315.005 235.246 319.096 232.228 323.326C229.616 326.98 226.907 330.62 222.639 330.698C218.446 330.773 217.096 328.316 212.3 328.316C207.507 328.316 206.009 330.619 202.041 330.772C197.921 330.919 194.781 326.819 192.151 323.177C186.77 315.728 182.659 302.127 188.18 292.947C190.923 288.39 195.822 285.5 201.143 285.428C205.187 285.353 209.006 288.035 211.478 288.035C213.951 288.035 218.592 284.81 223.47 285.284C225.512 285.365 231.245 286.073 234.925 291.236C234.628 291.413 228.084 295.062 228.157 302.652Z" fill="white"/>
</g>
<rect x="147.748" y="237.243" width="126.623" height="127.066" rx="26.6794" stroke="white" stroke-width="1.13529"/>
</g>
<rect x="136.812" y="226.528" width="148.497" height="148.497" rx="33.9453" stroke="white" stroke-opacity="0.6" stroke-width="0.227059"/>
</g>
<g filter="url(#filter2_dii_46_321)">
<g clip-path="url(#clip1_46_321)">
<rect x="316.422" y="226.415" width="148.724" height="148.724" rx="34.0588" fill="url(#paint2_linear_46_321)"/>
<path d="M345.476 131.586V469.967" stroke="white" stroke-width="0.794706"/>
<path d="M375.681 131.586V469.967" stroke="white" stroke-width="0.794706"/>
<path d="M405.886 131.586V469.967" stroke="white" stroke-width="0.794706"/>
<path d="M436.091 131.586V469.967" stroke="white" stroke-width="0.794706"/>
<path d="M559.974 255.469L221.593 255.469" stroke="white" stroke-width="0.794706"/>
<path d="M559.974 285.674L221.593 285.674" stroke="white" stroke-width="0.794706"/>
<path d="M559.974 315.879L221.593 315.879" stroke="white" stroke-width="0.794706"/>
<path d="M559.974 346.083L221.593 346.083" stroke="white" stroke-width="0.794706"/>
<g filter="url(#filter3_di_46_321)">
<rect x="268.172" y="178.165" width="245.224" height="245.224" fill="url(#paint3_radial_46_321)" shape-rendering="crispEdges"/>
<rect x="268.285" y="178.278" width="244.997" height="244.997" stroke="white" stroke-opacity="0.6" stroke-width="0.227059" shape-rendering="crispEdges"/>
<path d="M388.764 285.926C388.718 286.061 388.5 286.041 388.376 286.08C388.266 286.138 388.176 286.239 388.048 286.239C387.932 286.239 387.744 286.193 387.729 286.08C387.707 285.926 387.936 285.769 388.08 285.769C388.174 285.724 388.283 285.699 388.397 285.699C388.502 285.699 388.601 285.72 388.691 285.759L388.686 285.758C388.727 285.774 388.757 285.814 388.757 285.861C388.757 285.866 388.757 285.87 388.755 285.876V285.923H388.763L388.764 285.926ZM390.054 285.926V285.876C390.039 285.829 390.084 285.778 390.122 285.759C390.208 285.722 390.309 285.699 390.416 285.699C390.531 285.699 390.639 285.726 390.735 285.771L390.731 285.769C390.879 285.769 391.106 285.926 391.082 286.086C391.069 286.2 390.883 286.239 390.765 286.239C390.636 286.239 390.549 286.138 390.435 286.08C390.313 286.037 390.094 286.061 390.053 285.928L390.054 285.926ZM392.589 289.635C391.592 290.267 390.413 290.711 389.149 290.884L389.104 290.889C387.968 290.824 386.934 290.424 386.091 289.787L386.104 289.796C385.744 289.483 385.448 289.168 385.23 289.011C384.846 288.698 384.893 288.231 385.058 288.231C385.313 288.268 385.359 288.544 385.524 288.699C385.749 288.853 386.029 289.168 386.368 289.479C387.113 290.094 388.054 290.494 389.087 290.573L389.104 290.574C390.33 290.468 391.446 290.074 392.409 289.464L392.379 289.483C392.837 289.166 393.422 288.701 393.898 288.388C394.264 288.069 394.247 287.762 394.553 287.762C394.853 287.799 394.633 288.075 394.208 288.54C393.746 288.893 393.219 289.254 392.674 289.59L392.591 289.637L392.589 289.635ZM375.816 310.896H375.838C375.968 310.896 376.095 310.909 376.219 310.931L376.206 310.929C377.226 311.192 378.066 311.826 378.593 312.675L378.602 312.692L380.734 316.59L380.741 316.598C381.598 318.047 382.519 319.301 383.548 320.458L383.528 320.434C384.446 321.409 385.065 322.676 385.232 324.083L385.236 324.113V324.128C385.213 325.659 384.086 326.923 382.618 327.158L382.601 327.159C382.226 327.218 381.791 327.249 381.351 327.249C379.744 327.249 378.24 326.813 376.95 326.049L376.989 326.072C375.015 325.245 372.724 324.733 370.324 324.662H370.296C369.598 324.615 368.991 324.259 368.606 323.732L368.603 323.726C368.501 323.4 368.443 323.025 368.443 322.635C368.443 321.979 368.608 321.362 368.901 320.824L368.891 320.844V320.835L368.897 320.828C368.974 320.475 369.019 320.068 369.019 319.652C369.019 319.138 368.951 318.641 368.824 318.169L368.833 318.208C368.756 317.927 368.711 317.603 368.711 317.267C368.711 316.813 368.792 316.38 368.942 315.979L368.934 316.005C369.309 315.223 369.863 315.068 370.551 314.756C371.372 314.507 372.086 314.13 372.709 313.644L372.694 313.656H372.698V313.65C373.298 313.022 373.74 312.242 374.263 311.687C374.629 311.22 375.186 310.918 375.814 310.899H375.818L375.816 310.896ZM401.154 310.781C401.153 310.813 401.153 310.853 401.153 310.892C401.153 312.285 401.994 313.481 403.198 314.001L403.221 314.01C403.311 314.016 403.416 314.019 403.521 314.019C405.079 314.019 406.474 313.324 407.411 312.225L407.417 312.218L407.912 312.195C408.011 312.18 408.126 312.173 408.242 312.173C408.881 312.173 409.464 312.42 409.898 312.825L409.896 312.823L409.903 312.831C410.37 313.395 410.694 314.093 410.816 314.859L410.82 314.884C410.923 315.831 411.266 316.684 411.789 317.396L411.78 317.381C412.56 318.049 413.102 318.975 413.267 320.027L413.271 320.051L413.278 320.034V320.076L413.271 320.048C413.235 320.661 412.838 320.976 412.104 321.443C409.884 322.374 407.978 323.614 406.335 325.133L406.348 325.121C405.208 326.606 403.534 327.632 401.618 327.908L401.578 327.911C401.439 327.93 401.278 327.941 401.115 327.941C399.675 327.941 398.438 327.071 397.898 325.83L397.888 325.808L397.877 325.8C397.703 325.264 397.603 324.647 397.603 324.008C397.603 323.228 397.751 322.483 398.023 321.799L398.008 321.84C398.447 320.588 398.824 319.091 399.073 317.55L399.094 317.394C399.124 315.872 399.289 314.408 399.578 312.988L399.551 313.144C399.711 312.173 400.266 311.355 401.04 310.847L401.053 310.839L401.158 310.789L401.154 310.781ZM396.034 289.793C397.159 293.818 398.544 297.296 400.247 300.587L400.099 300.274C401.248 302.318 402.143 304.689 402.654 307.202L402.681 307.359C402.698 307.359 402.718 307.359 402.739 307.359C403.146 307.359 403.539 307.414 403.914 307.517L403.883 307.509C404.089 306.769 404.207 305.919 404.207 305.042C404.207 302.368 403.106 299.949 401.333 298.219L401.331 298.217C400.815 297.748 400.787 297.431 401.042 297.431C402.863 299.138 404.209 301.328 404.876 303.795L404.899 303.891C405.066 304.508 405.161 305.216 405.161 305.948C405.161 306.606 405.084 307.247 404.938 307.86L404.949 307.804C405.088 307.875 405.249 307.929 405.42 307.959L405.431 307.961C407.85 309.212 408.743 310.159 408.313 311.563V311.462C408.173 311.454 408.032 311.462 407.891 311.462H407.854C408.208 310.367 407.428 309.529 405.358 308.593C403.215 307.656 401.501 307.806 401.211 309.683C401.19 309.774 401.175 309.881 401.169 309.992V309.998C401.033 310.054 400.869 310.106 400.701 310.144L400.68 310.148C399.728 310.778 399.049 311.758 398.826 312.902L398.822 312.928C398.544 314.231 398.37 315.741 398.342 317.284V317.306V317.314C398.171 318.508 397.911 319.577 397.558 320.601L397.596 320.477C395.753 321.984 393.375 322.896 390.782 322.896C388.663 322.896 386.687 322.286 385.02 321.233L385.065 321.259C384.791 320.784 384.478 320.374 384.122 320.008L384.124 320.01C383.942 319.71 383.728 319.453 383.483 319.232L383.479 319.23C383.867 319.23 384.242 319.172 384.596 319.065L384.568 319.073C384.906 318.913 385.164 318.638 385.301 318.3L385.305 318.291C385.339 318.116 385.359 317.918 385.359 317.713C385.359 316.879 385.031 316.123 384.495 315.564L384.497 315.566C383.336 314.139 381.949 312.951 380.379 312.041L380.308 312.004C379.05 311.276 378.098 310.138 377.627 308.775L377.614 308.734C377.439 308.138 377.338 307.451 377.338 306.743C377.338 306.081 377.426 305.439 377.589 304.828L377.578 304.879C378.285 302.415 379.305 300.264 380.616 298.324L380.563 298.404C380.814 298.253 380.649 298.721 379.607 300.686C378.718 302.023 378.188 303.668 378.188 305.436C378.188 307.011 378.608 308.486 379.343 309.759L379.32 309.718C379.418 307.264 379.967 304.961 380.884 302.858L380.837 302.979C382.815 299.413 384.313 295.271 385.103 290.882L385.14 290.636C385.253 290.721 385.648 290.953 385.817 291.109C386.327 291.42 386.708 291.889 387.199 292.198C387.699 292.686 388.386 292.986 389.139 292.986C389.179 292.986 389.218 292.986 389.258 292.984H389.252C389.344 292.991 389.428 292.999 389.509 292.999C390.369 292.982 391.172 292.751 391.869 292.358L391.845 292.371C392.524 292.058 393.064 291.589 393.579 291.433H393.591C394.594 291.161 395.434 290.582 396.028 289.804L396.036 289.793H396.034ZM389.473 284.773C389.479 284.773 389.484 284.773 389.49 284.773C390.557 284.773 391.541 285.124 392.334 285.716L392.321 285.707C393.03 286.146 393.848 286.519 394.712 286.783L394.787 286.802H394.794C395.256 287.008 395.636 287.329 395.908 287.728L395.914 287.738V287.43C396 287.603 396.053 287.807 396.053 288.023C396.053 288.206 396.015 288.381 395.949 288.54L395.953 288.531C395.413 289.481 394.538 290.188 393.491 290.496L393.461 290.503V290.507C392.833 290.824 392.288 291.287 391.646 291.596C390.99 291.99 390.201 292.223 389.355 292.223C389.327 292.223 389.299 292.223 389.271 292.223H389.274C389.233 292.224 389.184 292.226 389.136 292.226C388.809 292.226 388.494 292.168 388.206 292.059L388.224 292.065C387.926 291.902 387.681 291.748 387.443 291.583L387.469 291.602C387.043 291.229 386.574 290.871 386.083 290.543L386.034 290.513V290.501H386.023C385.32 290.128 384.767 289.556 384.426 288.859L384.416 288.836C384.366 288.711 384.338 288.564 384.338 288.413C384.338 288.004 384.548 287.644 384.864 287.434L384.868 287.432C385.393 287.115 385.759 286.796 386.001 286.644C386.244 286.472 386.336 286.406 386.413 286.337H386.417V286.329C386.919 285.694 387.585 285.206 388.352 284.931L388.382 284.921C388.708 284.828 389.083 284.773 389.471 284.769L389.473 284.773ZM386.263 280.776H386.348C386.7 280.783 387.024 280.901 387.287 281.094L387.283 281.091C387.619 281.389 387.893 281.751 388.08 282.159L388.088 282.18C388.299 282.639 388.431 283.174 388.446 283.736V283.742V283.751C388.453 283.838 388.457 283.937 388.457 284.036C388.457 284.154 388.451 284.273 388.44 284.389L388.442 284.374V284.561C388.373 284.578 388.311 284.603 388.247 284.618C387.889 284.766 387.587 284.923 387.3 285.101L387.326 285.086C387.341 284.983 387.349 284.865 387.349 284.745C387.349 284.646 387.343 284.546 387.332 284.449L387.334 284.46V284.424C387.3 284.136 387.233 283.871 387.133 283.622L387.141 283.643C387.064 283.395 386.929 283.185 386.753 283.018C386.649 282.924 386.513 282.866 386.361 282.866C386.348 282.866 386.334 282.866 386.321 282.868H386.323H386.274C386.081 282.889 385.92 283.009 385.839 283.174L385.838 283.178C385.693 283.352 385.594 283.568 385.556 283.804V283.811C385.513 283.973 385.491 284.158 385.491 284.349C385.491 284.432 385.494 284.514 385.504 284.595V284.586V284.621C385.534 284.91 385.601 285.176 385.699 285.424L385.691 285.403C385.77 285.651 385.903 285.863 386.079 286.031C386.102 286.054 386.128 286.073 386.158 286.088H386.16C386.004 286.187 385.869 286.292 385.746 286.408L385.748 286.406C385.663 286.481 385.56 286.538 385.446 286.564L385.44 286.566C385.209 286.29 384.996 285.981 384.812 285.654L384.797 285.624C384.585 285.165 384.454 284.633 384.433 284.068V284.061C384.426 283.971 384.422 283.866 384.422 283.759C384.422 283.307 384.495 282.872 384.628 282.465L384.621 282.495C384.759 282.011 384.986 281.593 385.288 281.237L385.284 281.243C385.523 280.961 385.871 280.783 386.263 280.774H386.265L386.263 280.776ZM393.204 280.637H393.234C393.236 280.637 393.238 280.637 393.242 280.637C393.758 280.637 394.23 280.811 394.609 281.104L394.603 281.1C395.033 281.432 395.378 281.85 395.619 282.328L395.629 282.349C395.856 282.848 395.996 283.427 396.017 284.038V284.046C396.017 283.999 396.03 283.952 396.03 283.905V284.151L396.021 284.102L396.011 284.046C396.006 284.646 395.878 285.212 395.649 285.728L395.661 285.701C395.544 286.007 395.376 286.269 395.162 286.487C395.106 286.453 395.036 286.421 394.967 286.393L394.956 286.389C394.703 286.311 394.481 286.204 394.281 286.073L394.29 286.078C394.146 286.018 393.973 285.966 393.795 285.926L393.774 285.923C393.926 285.78 394.067 285.628 394.196 285.467L394.204 285.458C394.322 285.18 394.395 284.859 394.41 284.522V284.516V284.469C394.41 284.454 394.41 284.439 394.41 284.423C394.41 284.104 394.358 283.798 394.26 283.513L394.266 283.534C394.148 283.236 394.003 282.979 393.831 282.744L393.838 282.754C393.675 282.589 393.459 282.476 393.218 282.444H393.212H393.174C393.173 282.444 393.169 282.444 393.167 282.444C392.919 282.444 392.698 282.566 392.563 282.752L392.561 282.754C392.344 282.966 392.179 283.228 392.085 283.523L392.081 283.536C391.963 283.811 391.886 284.132 391.871 284.466V284.471V284.516C391.875 284.741 391.892 284.959 391.922 285.171L391.918 285.143C391.466 284.985 390.893 284.826 390.495 284.67C390.473 284.533 390.458 284.372 390.454 284.207V284.201V284.154C390.452 284.117 390.452 284.074 390.452 284.031C390.452 283.423 390.581 282.848 390.816 282.328L390.804 282.354C391.003 281.831 391.354 281.402 391.802 281.111L391.811 281.106C392.194 280.813 392.679 280.637 393.204 280.637ZM391.965 272.659C391.601 272.659 391.226 272.678 390.84 272.708C380.938 273.488 383.565 283.971 383.413 287.464C383.319 290.138 382.412 292.581 380.929 294.574L380.953 294.54C378.315 297.544 376.163 301.054 374.67 304.896L374.589 305.134C374.106 306.418 373.824 307.901 373.824 309.45C373.824 309.984 373.858 310.511 373.922 311.027L373.916 310.965C373.811 311.051 373.723 311.156 373.661 311.276L373.659 311.282C373.05 311.91 372.606 312.688 372.105 313.247C371.574 313.654 370.952 313.974 370.277 314.173L370.238 314.183C369.368 314.443 368.659 315.011 368.222 315.759L368.213 315.776C368.018 316.174 367.903 316.641 367.903 317.136C367.903 317.154 367.903 317.171 367.903 317.19C367.907 317.636 367.952 318.068 368.04 318.488L368.033 318.444C368.138 318.855 368.198 319.328 368.198 319.813C368.198 320.132 368.171 320.445 368.121 320.751L368.124 320.717C367.811 321.304 367.629 322.001 367.629 322.742C367.629 323.263 367.719 323.762 367.886 324.225L367.877 324.195C368.389 324.923 369.163 325.436 370.059 325.599L370.08 325.603C372.469 325.804 374.676 326.303 376.757 327.066L376.581 327.009C377.889 327.788 379.466 328.247 381.148 328.247C381.699 328.247 382.239 328.198 382.764 328.103L382.71 328.11C383.961 327.827 384.981 327.011 385.53 325.918L385.541 325.894C386.918 325.886 388.423 325.264 390.836 325.112C392.473 324.977 394.524 325.738 396.874 325.581C396.943 325.879 397.035 326.139 397.151 326.385L397.14 326.361L397.148 326.368C397.868 327.876 399.379 328.899 401.13 328.899C401.282 328.899 401.432 328.892 401.58 328.877L401.561 328.879C403.719 328.56 405.572 327.439 406.836 325.836L406.849 325.819C408.429 324.379 410.274 323.192 412.296 322.344L412.421 322.298C413.231 321.939 413.813 321.201 413.94 320.312L413.942 320.299C413.831 318.998 413.207 317.863 412.277 317.081L412.269 317.076V316.849L412.262 316.841C411.861 316.223 411.579 315.488 411.473 314.7L411.469 314.672C411.369 313.71 410.948 312.861 410.316 312.221H410.308C410.169 312.096 410.019 312.064 409.868 311.904C409.744 311.816 409.59 311.762 409.423 311.754C409.789 310.626 409.999 309.328 409.999 307.98C409.999 306.218 409.637 304.539 408.984 303.017L409.016 303.099C407.696 299.964 405.981 297.266 403.894 294.908L403.92 294.939C401.848 292.911 400.493 290.156 400.268 287.089L400.266 287.049C400.328 282.008 400.819 272.679 391.961 272.666L391.965 272.659Z" fill="white"/>
</g>
<rect x="327.472" y="237.243" width="126.623" height="127.066" rx="26.6794" stroke="white" stroke-width="1.13529"/>
</g>
<rect x="316.535" y="226.528" width="148.497" height="148.497" rx="33.9453" stroke="black" stroke-opacity="0.6" stroke-width="0.227059"/>
</g>
<defs>
<filter id="filter0_dii_46_321" x="121.076" y="221.419" width="179.967" height="179.967" filterUnits="userSpaceOnUse" color-interpolation-filters="sRGB">
<feFlood flood-opacity="0" result="BackgroundImageFix"/>
<feColorMatrix in="SourceAlpha" type="matrix" values="0 0 0 0 0 0 0 0 0 0 0 0 0 0 0 0 0 0 127 0" result="hardAlpha"/>
<feMorphology radius="7.08424" operator="erode" in="SourceAlpha" result="effect1_dropShadow_46_321"/>
<feOffset dy="10.6264"/>
<feGaussianBlur stdDeviation="11.3529"/>
<feComposite in2="hardAlpha" operator="out"/>
<feColorMatrix type="matrix" values="0 0 0 0 0.3075 0 0 0 0 1 0 0 0 0 0.965375 0 0 0 0.25 0"/>
<feBlend mode="normal" in2="BackgroundImageFix" result="effect1_dropShadow_46_321"/>
<feBlend mode="normal" in="SourceGraphic" in2="effect1_dropShadow_46_321" result="shape"/>
<feColorMatrix in="SourceAlpha" type="matrix" values="0 0 0 0 0 0 0 0 0 0 0 0 0 0 0 0 0 0 127 0" result="hardAlpha"/>
<feOffset/>
<feGaussianBlur stdDeviation="11.3529"/>
<feComposite in2="hardAlpha" operator="arithmetic" k2="-1" k3="1"/>
<feColorMatrix type="matrix" values="0 0 0 0 0.923077 0 0 0 0 0.923077 0 0 0 0 0.923077 0 0 0 1 0"/>
<feBlend mode="normal" in2="shape" result="effect2_innerShadow_46_321"/>
<feColorMatrix in="SourceAlpha" type="matrix" values="0 0 0 0 0 0 0 0 0 0 0 0 0 0 0 0 0 0 127 0" result="hardAlpha"/>
<feOffset dy="-4.54118"/>
<feGaussianBlur stdDeviation="2.83824"/>
<feComposite in2="hardAlpha" operator="arithmetic" k2="-1" k3="1"/>
<feColorMatrix type="matrix" values="0 0 0 0 0.548077 0 0 0 0 0.548077 0 0 0 0 0.548077 0 0 0 0.25 0"/>
<feBlend mode="normal" in2="effect2_innerShadow_46_321" result="effect3_innerShadow_46_321"/>
</filter>
<filter id="filter1_di_46_321" x="72.8265" y="173.169" width="276.467" height="276.467" filterUnits="userSpaceOnUse" color-interpolation-filters="sRGB">
<feFlood flood-opacity="0" result="BackgroundImageFix"/>
<feColorMatrix in="SourceAlpha" type="matrix" values="0 0 0 0 0 0 0 0 0 0 0 0 0 0 0 0 0 0 127 0" result="hardAlpha"/>
<feMorphology radius="7.08424" operator="erode" in="SourceAlpha" result="effect1_dropShadow_46_321"/>
<feOffset dy="10.6264"/>
<feGaussianBlur stdDeviation="11.3529"/>
<feComposite in2="hardAlpha" operator="out"/>
<feColorMatrix type="matrix" values="0 0 0 0 0.3075 0 0 0 0 1 0 0 0 0 0.965375 0 0 0 0.25 0"/>
<feBlend mode="normal" in2="BackgroundImageFix" result="effect1_dropShadow_46_321"/>
<feBlend mode="normal" in="SourceGraphic" in2="effect1_dropShadow_46_321" result="shape"/>
<feColorMatrix in="SourceAlpha" type="matrix" values="0 0 0 0 0 0 0 0 0 0 0 0 0 0 0 0 0 0 127 0" result="hardAlpha"/>
<feOffset/>
<feGaussianBlur stdDeviation="11.3529"/>
<feComposite in2="hardAlpha" operator="arithmetic" k2="-1" k3="1"/>
<feColorMatrix type="matrix" values="0 0 0 0 0.923077 0 0 0 0 0.923077 0 0 0 0 0.923077 0 0 0 1 0"/>
<feBlend mode="normal" in2="shape" result="effect2_innerShadow_46_321"/>
</filter>
<filter id="filter2_dii_46_321" x="300.8" y="221.419" width="179.967" height="179.967" filterUnits="userSpaceOnUse" color-interpolation-filters="sRGB">
<feFlood flood-opacity="0" result="BackgroundImageFix"/>
<feColorMatrix in="SourceAlpha" type="matrix" values="0 0 0 0 0 0 0 0 0 0 0 0 0 0 0 0 0 0 127 0" result="hardAlpha"/>
<feMorphology radius="7.08424" operator="erode" in="SourceAlpha" result="effect1_dropShadow_46_321"/>
<feOffset dy="10.6264"/>
<feGaussianBlur stdDeviation="11.3529"/>
<feComposite in2="hardAlpha" operator="out"/>
<feColorMatrix type="matrix" values="0 0 0 0 0.3075 0 0 0 0 1 0 0 0 0 0.965375 0 0 0 0.25 0"/>
<feBlend mode="normal" in2="BackgroundImageFix" result="effect1_dropShadow_46_321"/>
<feBlend mode="normal" in="SourceGraphic" in2="effect1_dropShadow_46_321" result="shape"/>
<feColorMatrix in="SourceAlpha" type="matrix" values="0 0 0 0 0 0 0 0 0 0 0 0 0 0 0 0 0 0 127 0" result="hardAlpha"/>
<feOffset/>
<feGaussianBlur stdDeviation="11.3529"/>
<feComposite in2="hardAlpha" operator="arithmetic" k2="-1" k3="1"/>
<feColorMatrix type="matrix" values="0 0 0 0 0.923077 0 0 0 0 0.923077 0 0 0 0 0.923077 0 0 0 1 0"/>
<feBlend mode="normal" in2="shape" result="effect2_innerShadow_46_321"/>
<feColorMatrix in="SourceAlpha" type="matrix" values="0 0 0 0 0 0 0 0 0 0 0 0 0 0 0 0 0 0 127 0" result="hardAlpha"/>
<feOffset dy="-4.54118"/>
<feGaussianBlur stdDeviation="2.83824"/>
<feComposite in2="hardAlpha" operator="arithmetic" k2="-1" k3="1"/>
<feColorMatrix type="matrix" values="0 0 0 0 0.548077 0 0 0 0 0.548077 0 0 0 0 0.548077 0 0 0 0.25 0"/>
<feBlend mode="normal" in2="effect2_innerShadow_46_321" result="effect3_innerShadow_46_321"/>
</filter>
<filter id="filter3_di_46_321" x="252.55" y="173.169" width="276.467" height="276.467" filterUnits="userSpaceOnUse" color-interpolation-filters="sRGB">
<feFlood flood-opacity="0" result="BackgroundImageFix"/>
<feColorMatrix in="SourceAlpha" type="matrix" values="0 0 0 0 0 0 0 0 0 0 0 0 0 0 0 0 0 0 127 0" result="hardAlpha"/>
<feMorphology radius="7.08424" operator="erode" in="SourceAlpha" result="effect1_dropShadow_46_321"/>
<feOffset dy="10.6264"/>
<feGaussianBlur stdDeviation="11.3529"/>
<feComposite in2="hardAlpha" operator="out"/>
<feColorMatrix type="matrix" values="0 0 0 0 0.3075 0 0 0 0 1 0 0 0 0 0.965375 0 0 0 0.25 0"/>
<feBlend mode="normal" in2="BackgroundImageFix" result="effect1_dropShadow_46_321"/>
<feBlend mode="normal" in="SourceGraphic" in2="effect1_dropShadow_46_321" result="shape"/>
<feColorMatrix in="SourceAlpha" type="matrix" values="0 0 0 0 0 0 0 0 0 0 0 0 0 0 0 0 0 0 127 0" result="hardAlpha"/>
<feOffset/>
<feGaussianBlur stdDeviation="11.3529"/>
<feComposite in2="hardAlpha" operator="arithmetic" k2="-1" k3="1"/>
<feColorMatrix type="matrix" values="0 0 0 0 0.923077 0 0 0 0 0.923077 0 0 0 0 0.923077 0 0 0 1 0"/>
<feBlend mode="normal" in2="shape" result="effect2_innerShadow_46_321"/>
</filter>
<linearGradient id="paint0_linear_46_321" x1="211.06" y1="226.415" x2="211.06" y2="375.138" gradientUnits="userSpaceOnUse">
<stop stop-color="#0A67F8"/>
<stop offset="1" stop-color="#063D92"/>
</linearGradient>
<radialGradient id="paint1_radial_46_321" cx="0" cy="0" r="1" gradientUnits="userSpaceOnUse" gradientTransform="translate(211.06 300.776) rotate(90) scale(122.612)">
<stop stop-color="#0852C5" stop-opacity="0"/>
<stop offset="0.682692" stop-color="#0A67F8"/>
<stop offset="1" stop-color="#063D92"/>
</radialGradient>
<linearGradient id="paint2_linear_46_321" x1="390.784" y1="226.415" x2="390.784" y2="375.138" gradientUnits="userSpaceOnUse">
<stop stop-color="#0A67F8"/>
<stop offset="1" stop-color="#063D92"/>
</linearGradient>
<radialGradient id="paint3_radial_46_321" cx="0" cy="0" r="1" gradientUnits="userSpaceOnUse" gradientTransform="translate(390.784 300.776) rotate(90) scale(122.612)">
<stop stop-color="#0852C5" stop-opacity="0"/>
<stop offset="0.682692" stop-color="#0A67F8"/>
<stop offset="1" stop-color="#063D92"/>
</radialGradient>
<clipPath id="clip0_46_321">
<rect x="136.698" y="226.415" width="148.724" height="148.724" rx="34.0588" fill="white"/>
</clipPath>
<clipPath id="clip1_46_321">
<rect x="316.422" y="226.415" width="148.724" height="148.724" rx="34.0588" fill="white"/>
</clipPath>
</defs>
</svg>
