<svg width="24" height="24" viewBox="0 0 24 24" fill="none" xmlns="http://www.w3.org/2000/svg">
<path d="M12.3261 3.79944C12.5358 3.49517 12.5512 3.09724 12.3658 2.77761C12.1803 2.45798 11.8271 2.27397 11.4589 2.30507C6.56228 2.7187 2.71777 6.82285 2.71777 11.826C2.71777 17.1031 6.99574 21.3811 12.2729 21.3811C17.2759 21.3811 21.3802 17.5365 21.7938 12.6399C21.8248 12.2716 21.6408 11.9185 21.3212 11.733C21.0016 11.5476 20.6037 11.563 20.2994 11.7728C19.3763 12.409 18.2583 12.7815 17.0504 12.7815C13.8842 12.7815 11.3174 10.2147 11.3174 7.04839C11.3174 5.84056 11.6898 4.72259 12.3261 3.79944Z" fill="#F5F5F5"/>
</svg>
