<svg width="21" height="21" viewBox="0 0 21 21" fill="none" xmlns="http://www.w3.org/2000/svg">
<path d="M9.45055 1.63949C9.74991 0.718175 11.0533 0.718173 11.3527 1.63948L13.1213 7.08267C13.2551 7.4947 13.6391 7.77366 14.0723 7.77366H19.7956C20.7644 7.77366 21.1671 9.01327 20.3834 9.58267L15.7532 12.9467C15.4027 13.2014 15.256 13.6528 15.3899 14.0648L17.1585 19.508C17.4578 20.4293 16.4034 21.1954 15.6197 20.626L10.9894 17.2619C10.6389 17.0073 10.1643 17.0073 9.81383 17.2619L5.18357 20.626C4.39986 21.1954 3.34538 20.4293 3.64473 19.508L5.41333 14.0648C5.5472 13.6528 5.40055 13.2014 5.05006 12.9467L0.419807 9.58267C-0.363906 9.01327 0.0388676 7.77366 1.00759 7.77366H6.7309C7.16412 7.77366 7.54808 7.4947 7.68196 7.08267L9.45055 1.63949Z" fill="white"/>
</svg>
