<svg width="22" height="21" viewBox="0 0 22 21" fill="none" xmlns="http://www.w3.org/2000/svg">
<path d="M9.93542 1.63949C10.2348 0.718175 11.5382 0.718173 11.8375 1.63948L13.6061 7.08267C13.74 7.4947 14.124 7.77366 14.5572 7.77366H20.2805C21.2492 7.77366 21.652 9.01327 20.8683 9.58267L16.238 12.9467C15.8875 13.2014 15.7409 13.6528 15.8748 14.0648L17.6434 19.508C17.9427 20.4293 16.8882 21.1954 16.1045 20.626L11.4743 17.2619C11.1238 17.0073 10.6492 17.0073 10.2987 17.2619L5.66844 20.626C4.88472 21.1954 3.83024 20.4293 4.12959 19.508L5.89819 14.0648C6.03207 13.6528 5.88541 13.2014 5.53492 12.9467L0.904671 9.58267C0.120957 9.01327 0.523731 7.77366 1.49245 7.77366H7.21576C7.64899 7.77366 8.03294 7.4947 8.16682 7.08267L9.93542 1.63949Z" fill="white"/>
</svg>
