<svg width="26" height="28" viewBox="0 0 26 28" fill="none" xmlns="http://www.w3.org/2000/svg">
<path d="M7.88372 3.871C8.27967 2.83466 9.70051 2.83467 10.0965 3.87101L11.3235 7.08252C11.4443 7.39892 11.687 7.64937 11.9935 7.77415L15.1046 9.04076C16.1087 9.44948 16.1087 10.9162 15.1046 11.3249L11.9935 12.5915C11.687 12.7162 11.4443 12.9668 11.3235 13.2831L10.0965 16.4946C9.70051 17.531 8.27967 17.531 7.88372 16.4946L6.6567 13.2831C6.53582 12.9668 6.29319 12.7162 5.98668 12.5915L2.87552 11.3249C1.87157 10.9162 1.87158 9.44948 2.87553 9.04076L5.98668 7.77415C6.29319 7.64937 6.53582 7.39892 6.6567 7.08252L7.88372 3.871Z" fill="#0A67F8"/>
<path opacity="0.5" d="M17.8908 15.5176C18.1084 14.9482 18.8892 14.9482 19.1068 15.5176L20.0584 18.0083C20.1248 18.1823 20.2582 18.3199 20.4267 18.3885L22.8395 19.3707C23.3911 19.5954 23.3911 20.4014 22.8395 20.626L20.4267 21.6082C20.2582 21.6768 20.1248 21.8145 20.0584 21.9884L19.1068 24.4791C18.8892 25.0485 18.1084 25.0485 17.8908 24.4791L16.9392 21.9884C16.8728 21.8145 16.7394 21.6768 16.5709 21.6082L14.1581 20.626C13.6065 20.4014 13.6065 19.5954 14.1581 19.3707L16.5709 18.3885C16.7394 18.3199 16.8728 18.1823 16.9392 18.0083L17.8908 15.5176Z" fill="#0A67F8"/>
</svg>
